<svg width="35" height="35" viewBox="0 0 35 35" fill="none" xmlns="http://www.w3.org/2000/svg">
<path d="M31.6831 25.7055C31.5889 25.9714 31.4977 26.2569 31.3927 26.5374C30.5235 28.891 29.204 30.9806 27.6029 32.8956C27.2938 33.2684 26.9338 33.6059 26.562 33.9189C25.8272 34.5409 24.9815 34.9166 24.0034 34.9509C23.2686 34.9745 22.5632 34.8411 21.8833 34.5644C21.3909 34.3633 20.9062 34.1386 20.4069 33.9571C18.7862 33.3685 17.1743 33.446 15.5801 34.0759C15.0052 34.3035 14.4381 34.5546 13.8525 34.7518C13.1736 34.9794 12.4692 35.0716 11.752 34.9362C11.1261 34.8195 10.5787 34.5281 10.0705 34.1524C9.43969 33.6854 8.90992 33.1164 8.41449 32.514C6.06879 29.6533 4.49421 26.4187 3.73389 22.7957C3.40622 21.2378 3.24925 19.6671 3.3454 18.0749C3.45822 16.1658 3.90165 14.3479 4.92195 12.7095C6.20222 10.6503 8.00833 9.30135 10.3844 8.74509C11.8138 8.40859 13.204 8.54594 14.5667 9.0708C15.2838 9.3455 16.0029 9.61725 16.723 9.88704C17.3862 10.1362 18.0465 10.1362 18.7106 9.88213C19.4454 9.60155 20.1812 9.32195 20.919 9.04824C21.6754 8.77256 22.4445 8.54692 23.247 8.48315C24.4478 8.38603 25.6192 8.54202 26.7592 8.92365C28.375 9.46421 29.6896 10.4207 30.6824 11.8138C30.7089 11.8521 30.7383 11.8943 30.7579 11.9247C28.2543 13.67 26.8288 15.9754 27.0358 19.0972C27.2448 22.2208 28.9263 24.334 31.6831 25.7055ZM17.6393 8.09662C18.3781 8.11624 19.0883 7.97399 19.7721 7.70224C22.8909 6.46415 24.5214 3.16487 24.4723 0.641608C24.4684 0.43853 24.4547 0.235452 24.4459 0C24.1251 0.0480715 23.8327 0.0706357 23.5521 0.141271C21.2751 0.69949 19.5229 1.96995 18.3712 4.02722C17.6972 5.23195 17.3224 6.51124 17.4372 7.90924C17.4451 8.05738 17.499 8.09466 17.6393 8.09662Z" fill="black"/>
</svg>
