<svg width="64" height="57" viewBox="0 0 64 57" fill="none" xmlns="http://www.w3.org/2000/svg">
<path fill-rule="evenodd" clip-rule="evenodd" d="M12 7.91579C12 5.74502 12.7832 3.89241 14.3497 2.35789C15.9161 0.785957 17.7996 0 20 0C22.2005 0 24.0839 0.785957 25.6504 2.35789C27.2168 3.89241 28 5.76373 28 7.97193C28 10.2176 27.2168 12.1263 25.6504 13.6982C24.0093 15.2328 22.1259 16 20 16C17.7623 16 15.8602 15.214 14.2937 13.6421C12.7646 11.9953 12 10.0866 12 7.91579ZM44.9556 32.9173C44.985 33.2743 45 33.6354 45 34C45 41.1797 39.1797 47 32 47C24.8203 47 19 41.1797 19 34C19 33.6866 19.0111 33.3758 19.0329 33.068C15.9707 33.5711 12.2289 33.8049 9.00079 33.1045C9.02322 37.8823 9.53899 41.4968 10.5481 43.9482C11.617 46.7503 13.4415 49.2759 16.0217 51.5249C20.2236 55.175 25.5497 57 32 57C38.4872 57 43.8317 55.175 48.0337 51.5249C50.577 49.2759 52.3646 46.7503 53.3967 43.9482C54.4252 40.9329 54.9588 37.3714 54.9977 33.2637C51.6609 33.8141 47.9049 33.4708 44.9556 32.9173ZM38.3497 2.35789C36.7832 3.89241 36 5.74502 36 7.91579C36 10.1614 36.7832 12.0702 38.3497 13.6421C39.9161 15.214 41.7996 16 44 16C46.1259 16 48.0093 15.2328 49.6504 13.6982C51.2168 12.1263 52 10.2176 52 7.97193C52 5.76373 51.2168 3.89241 49.6504 2.35789C48.1212 0.785957 46.2378 0 44 0C41.8368 0 39.9534 0.785957 38.3497 2.35789Z" fill="black"/>
<path d="M56.498 17.361C50.003 18.166 52.291 22.249 52.291 22.249C51.13 19.581 56.931 18.784 56.004 22.991C55.075 27.198 45.173 23.43 45.173 23.43L45.164 23.448C44.755 23.251 44.342 23.058 43.908 22.892C39.911 21.358 35.758 21.493 32.411 22.93C29.063 21.493 24.911 21.359 20.913 22.892C20.486 23.057 20.079 23.248 19.674 23.44L19.668 23.429C19.668 23.429 9.76602 27.197 8.83702 22.99C7.90802 18.783 13.71 19.58 12.548 22.248C12.548 22.248 14.838 18.165 8.34102 17.36C1.84503 16.556 -1.37298 23.176 3.02002 29.547C6.86602 35.127 17.695 33.647 22.609 32.296C22.708 32.27 22.807 32.236 22.906 32.206C23.464 32.046 23.953 31.889 24.31 31.747C27.974 30.342 30.787 27.802 32.407 24.841C34.028 27.801 36.841 30.341 40.505 31.747C40.596 31.783 40.688 31.804 40.778 31.838C41.044 31.934 41.354 32.035 41.707 32.142C41.919 32.204 42.13 32.272 42.342 32.325C47.306 33.668 57.997 35.085 61.815 29.548C66.211 23.177 62.994 16.557 56.498 17.361Z" fill="#F5A623"/>
</svg>
