<svg width="198" height="37" viewBox="0 0 198 37" fill="none" xmlns="http://www.w3.org/2000/svg">
<path d="M0.529785 3.04932C0.529785 3.86963 0.700684 4.5874 1.04248 5.20264C1.39567 5.81787 1.8514 6.33626 2.40967 6.75781C2.96794 7.17936 3.60026 7.50407 4.30664 7.73193C5.02441 7.9484 5.74788 8.05664 6.47705 8.05664C7.08089 8.05664 7.69043 8.02816 8.30566 7.97119C8.93229 7.91423 9.54753 7.88574 10.1514 7.88574C12.111 7.88574 13.5636 8.4554 14.5093 9.59473C15.4549 10.734 15.9277 12.2607 15.9277 14.1748C15.9277 14.8242 15.8423 15.4964 15.6714 16.1914C15.5119 16.875 15.2555 17.5073 14.9023 18.0884C14.5605 18.658 14.1105 19.1252 13.5522 19.4897C13.0054 19.8429 12.3389 20.0195 11.5527 20.0195H11.1255C10.9204 20.0195 10.6755 20.0138 10.3906 20.0024C10.1172 19.991 9.85514 19.9512 9.60449 19.8828C9.36523 19.8145 9.16016 19.7119 8.98926 19.5752C8.82975 19.4271 8.75 19.2277 8.75 18.9771C9.79818 18.9771 10.6812 18.7834 11.3989 18.396C12.1281 18.0086 12.4927 17.2111 12.4927 16.0034C12.4927 15.2059 12.2363 14.5394 11.7236 14.0039C11.2109 13.4684 10.533 13.2007 9.68994 13.2007C8.89242 13.2007 8.26009 13.4058 7.79297 13.8159C7.33724 14.2261 6.95557 14.7786 6.64795 15.4736V16.3452C6.64795 17.0402 6.79036 17.6839 7.0752 18.2764C7.37142 18.8574 7.75879 19.353 8.2373 19.7632C8.71582 20.1733 9.2627 20.498 9.87793 20.7373C10.5046 20.9652 11.1426 21.0791 11.792 21.0791C13.0794 21.0791 14.2415 20.7772 15.2783 20.1733C16.3151 19.5581 17.1867 18.772 17.8931 17.8149C18.6108 16.8579 19.1634 15.7869 19.5508 14.6021C19.9382 13.4058 20.1318 12.2152 20.1318 11.0303C20.1318 10.4492 20.0692 9.89095 19.9438 9.35547C19.8299 8.81999 19.7729 8.26742 19.7729 7.69775C19.7729 7.34456 19.8527 6.99707 20.0122 6.65527C20.1831 6.30208 20.4053 5.98307 20.6787 5.69824C20.9635 5.40202 21.2712 5.16846 21.6016 4.99756C21.9434 4.81527 22.2909 4.72412 22.644 4.72412C23.3162 4.72412 23.9315 4.88363 24.4897 5.20264C25.0594 5.52165 25.612 5.87484 26.1475 6.26221C26.6829 6.63818 27.2412 6.98568 27.8223 7.30469C28.4033 7.6237 29.0698 7.7832 29.8218 7.7832C31.3143 7.7832 32.6644 7.35596 33.8721 6.50146C35.0911 5.64697 36.1108 4.61589 36.9312 3.4082C37.0223 3.2487 37.159 3.01514 37.3413 2.70752C37.535 2.3999 37.6318 2.22331 37.6318 2.17773V1.75049H37.3413C36.9881 2.19482 36.5894 2.61068 36.145 2.99805C35.7121 3.38542 35.2165 3.5791 34.6582 3.5791C34.0088 3.5791 33.3936 3.45947 32.8125 3.22021C32.2428 2.96956 31.6618 2.70182 31.0693 2.41699C30.4883 2.12077 29.873 1.85303 29.2236 1.61377C28.5742 1.36312 27.8394 1.23779 27.019 1.23779C26.1076 1.23779 25.2246 1.3916 24.3701 1.69922C23.527 1.99544 22.7523 2.44548 22.0459 3.04932C21.9092 3.16325 21.7041 3.39111 21.4307 3.73291C21.1686 4.07471 20.8895 4.43359 20.5933 4.80957C20.3084 5.17415 20.0407 5.49886 19.79 5.78369C19.5508 6.05713 19.3913 6.19385 19.3115 6.19385C19.2432 6.19385 19.1463 6.1084 19.021 5.9375C18.8957 5.7666 18.759 5.57861 18.6108 5.37354C18.4741 5.15706 18.3431 4.95768 18.2178 4.77539C18.0924 4.58171 17.9956 4.47347 17.9272 4.45068C17.8361 4.35954 17.6253 4.13737 17.2949 3.78418C16.9645 3.43099 16.7424 3.18604 16.6284 3.04932C15.9334 2.44548 15.1188 2.03532 14.1846 1.81885C13.2503 1.59098 12.3389 1.47705 11.4502 1.47705C10.6527 1.47705 9.88932 1.52262 9.16016 1.61377C8.44238 1.70492 7.68473 1.87012 6.88721 2.10938C6.19222 2.31445 5.53141 2.54232 4.90479 2.79297C4.28955 3.03223 3.61165 3.15186 2.87109 3.15186C2.58626 3.15186 2.26725 3.10628 1.91406 3.01514C1.57227 2.92399 1.40137 2.67904 1.40137 2.28027V2.17773C1.40137 2.15495 1.44124 2.02393 1.521 1.78467C1.60075 1.53402 1.64062 1.37451 1.64062 1.30615V1.23779C1.64062 1.00993 1.58366 0.890299 1.46973 0.878906C1.28743 0.878906 1.12793 0.970052 0.991211 1.15234C0.865885 1.32324 0.769043 1.53402 0.700684 1.78467C0.632324 2.02393 0.586751 2.26318 0.563965 2.50244C0.541178 2.73031 0.529785 2.9126 0.529785 3.04932ZM4.7168 30C4.7168 31.1393 5.00163 32.1248 5.57129 32.9565C6.15234 33.7882 6.87581 34.4718 7.7417 35.0073C8.61898 35.5428 9.58171 35.9359 10.6299 36.1865C11.6895 36.4486 12.6978 36.5796 13.6548 36.5796C15.2612 36.5796 16.7993 36.2378 18.269 35.5542C19.7388 34.882 21.0205 33.9079 22.1143 32.6318C22.3763 32.3242 22.6156 32.0223 22.832 31.7261C23.0599 31.4412 23.1738 31.0994 23.1738 30.7007H23.0029C22.2852 31.4185 21.6187 32.028 21.0034 32.5293C20.3996 33.042 19.7616 33.4521 19.0894 33.7598C18.4285 34.0788 17.7051 34.3066 16.9189 34.4434C16.1442 34.5801 15.2271 34.6484 14.1675 34.6484C13.3927 34.6484 12.4984 34.6086 11.4844 34.5288C10.4818 34.4491 9.51904 34.2497 8.59619 33.9307C7.67334 33.623 6.8929 33.1502 6.25488 32.5122C5.62826 31.8856 5.31494 31.0254 5.31494 29.9316C5.31494 29.3734 5.46875 28.8835 5.77637 28.4619C6.08398 28.0404 6.45996 27.6872 6.9043 27.4023C7.36003 27.1061 7.84993 26.884 8.37402 26.7358C8.90951 26.5763 9.41081 26.4966 9.87793 26.4966C10.9261 26.4966 11.8945 26.7472 12.7832 27.2485C13.6833 27.7498 14.4637 28.3765 15.1245 29.1284C15.2612 29.2879 15.3979 29.5443 15.5347 29.8975C15.6828 30.2507 15.8708 30.4386 16.0986 30.4614H16.167C16.9645 29.1284 17.9102 27.9606 19.0039 26.958C20.0977 25.9554 21.2541 24.9642 22.4731 23.9844H22.5757C22.644 23.9844 22.7694 24.1268 22.9517 24.4116C23.1453 24.6851 23.3447 25.0041 23.5498 25.3687C23.7663 25.7218 23.9827 26.0807 24.1992 26.4453C24.4271 26.8099 24.6094 27.0605 24.7461 27.1973L27.7197 30.1709H27.9932C29.0413 29.1683 30.2035 28.3138 31.4795 27.6074C32.7555 26.8896 33.9404 26.1377 35.0342 25.3516C36.1279 24.554 37.0451 23.6141 37.7856 22.5317C38.5376 21.4494 38.9136 20.0309 38.9136 18.2764C38.9136 17.5244 38.811 16.7839 38.606 16.0547C38.4009 15.3141 38.0762 14.6533 37.6318 14.0723C37.3698 13.6963 37.0679 13.3146 36.7261 12.9272C36.3957 12.5285 36.0767 12.1069 35.769 11.6626C35.4614 11.2183 35.2108 10.7625 35.0171 10.2954C34.8234 9.82829 34.7266 9.33838 34.7266 8.82568C34.7266 8.22184 34.8747 7.67497 35.1709 7.18506C35.4785 6.69515 35.8545 6.22803 36.2988 5.78369V5.32227C35.9456 5.32227 35.5697 5.49886 35.1709 5.85205C34.7721 6.20524 34.4816 6.47298 34.2993 6.65527C33.4106 7.37305 32.6644 8.08512 32.0605 8.7915C31.4567 9.48649 30.9782 10.3752 30.625 11.4575V12.8418C30.625 13.7988 30.7275 14.6932 30.9326 15.5249C31.1491 16.3566 31.5365 17.1313 32.0947 17.8491C32.7214 18.6466 33.3423 19.4385 33.9575 20.2246C34.5841 20.9993 34.8975 21.9222 34.8975 22.9932V23.8818C34.6924 24.3717 34.3563 24.8617 33.8892 25.3516C33.422 25.8415 32.8809 26.0864 32.2656 26.0864C32.2201 26.0864 32.1061 26.0409 31.9238 25.9497C31.7529 25.8472 31.5763 25.7275 31.394 25.5908C31.2118 25.4541 31.0238 25.3174 30.8301 25.1807C30.6478 25.0326 30.5225 24.9243 30.4541 24.856C29.8047 24.2977 29.2863 23.7109 28.8989 23.0957C28.5116 22.4691 28.2096 21.8311 27.9932 21.1816C27.7881 20.5322 27.6571 19.86 27.6001 19.165C27.5431 18.4587 27.5146 17.7181 27.5146 16.9434C27.5146 15.3825 27.5602 13.9242 27.6514 12.5684C27.7425 11.2126 27.9191 9.82259 28.1812 8.39844V8.22754C28.1812 7.99967 28.0615 7.88574 27.8223 7.88574C27.4691 7.88574 27.0703 8.01676 26.626 8.27881C26.193 8.52946 25.8569 8.71175 25.6177 8.82568C24.7746 9.29281 24.1138 9.88525 23.6353 10.603C23.1567 11.3094 22.8092 12.0898 22.5928 12.9443C22.3763 13.7874 22.2396 14.6704 22.1826 15.5933C22.137 16.5161 22.1143 17.4105 22.1143 18.2764C22.1143 18.9714 22.1427 19.672 22.1997 20.3784C22.2681 21.0734 22.3022 21.7741 22.3022 22.4805C22.3022 22.64 22.2282 22.8564 22.0801 23.1299C21.9434 23.3919 21.7668 23.654 21.5503 23.916C21.3452 24.1667 21.123 24.3888 20.8838 24.5825C20.6559 24.7648 20.4622 24.856 20.3027 24.856C20.0407 24.856 19.7274 24.7021 19.3628 24.3945C19.0096 24.0755 18.702 23.842 18.4399 23.6938C17.7905 23.2951 17.124 23.0216 16.4404 22.8735C15.7682 22.7254 15.0391 22.6514 14.2529 22.6514C13.2503 22.6514 12.1851 22.8166 11.0571 23.147C9.94059 23.466 8.9152 23.9388 7.98096 24.5654C7.04671 25.1807 6.26628 25.944 5.63965 26.8555C5.02441 27.7669 4.7168 28.8151 4.7168 30ZM38.7085 13.3032C38.7085 13.4855 38.7655 13.5881 38.8794 13.6108C38.9933 13.6222 39.1187 13.5994 39.2554 13.5425C39.4035 13.4741 39.5402 13.4001 39.6655 13.3203C39.7909 13.2406 39.8763 13.2007 39.9219 13.2007C40.1497 13.2007 40.3263 13.3089 40.4517 13.5254C40.5884 13.7305 40.6852 13.9754 40.7422 14.2603C40.8105 14.5337 40.8504 14.8014 40.8618 15.0635C40.8732 15.3141 40.8789 15.485 40.8789 15.5762V25.5566C40.8789 25.9326 40.6852 26.377 40.2979 26.8896C39.9105 27.4023 39.6143 27.7384 39.4092 27.8979V28.3594H39.751L40.8789 27.2998H41.0498C41.1865 27.2998 41.346 27.4479 41.5283 27.7441C41.722 28.0404 41.9442 28.3651 42.1948 28.7183C42.4569 29.0601 42.736 29.3791 43.0322 29.6753C43.3398 29.9601 43.6702 30.1025 44.0234 30.1025H44.2969C45.0488 29.305 45.7837 28.6214 46.5015 28.0518C47.2306 27.4821 48.0396 26.8498 48.9282 26.1548H49.0308C49.0991 26.2687 49.2643 26.5422 49.5264 26.9751C49.7998 27.408 50.1074 27.8524 50.4492 28.3081C50.791 28.7638 51.1157 29.1797 51.4233 29.5557C51.7424 29.9202 51.993 30.1025 52.1753 30.1025H52.3462C52.4373 30.1025 52.7051 29.8918 53.1494 29.4702C53.5938 29.0487 54.0609 28.5701 54.5508 28.0347C55.0407 27.4992 55.4793 26.9808 55.8667 26.4795C56.2541 25.9782 56.4478 25.6364 56.4478 25.4541C56.1629 25.4541 55.9408 25.5737 55.7812 25.813C55.6217 26.0409 55.411 26.1548 55.1489 26.1548C54.8869 26.1548 54.6875 26.0636 54.5508 25.8813C54.4141 25.6877 54.3115 25.4598 54.2432 25.1978C54.1748 24.9243 54.1349 24.6452 54.1235 24.3604C54.1121 24.0641 54.1064 23.7964 54.1064 23.5571V22.2241C54.1064 21.9165 54.1121 21.3753 54.1235 20.6006C54.1349 19.8258 54.1406 19.0055 54.1406 18.1396C54.1406 17.251 54.1463 16.4193 54.1577 15.6445C54.1691 14.8584 54.1748 14.3115 54.1748 14.0039C54.2204 13.6735 54.3457 13.383 54.5508 13.1323C54.7673 12.8703 54.9837 12.6253 55.2002 12.3975C55.4281 12.1582 55.6331 11.9246 55.8154 11.6968C56.0091 11.4575 56.106 11.2012 56.106 10.9277H55.6787L54.1748 12.4316C54.0153 12.2721 53.8159 12.0272 53.5767 11.6968C53.3488 11.3664 53.1095 11.0417 52.8589 10.7227C52.6196 10.3923 52.3804 10.1017 52.1411 9.85107C51.9132 9.58903 51.7139 9.45801 51.543 9.45801H51.3721C51.0189 9.8112 50.6144 10.1815 50.1587 10.5688C49.7144 10.9448 49.2871 11.3037 48.877 11.6455C48.4668 11.9873 48.1136 12.2949 47.8174 12.5684C47.5326 12.8304 47.3787 13.0184 47.356 13.1323V13.4741C47.5838 13.4741 47.7775 13.3887 47.937 13.2178C48.1079 13.0469 48.3187 12.9614 48.5693 12.9614C48.7972 12.9614 48.9795 13.1551 49.1162 13.5425C49.2643 13.9185 49.3498 14.152 49.3726 14.2432V23.9844L49.0991 24.856L47.4585 26.4282H47.2705C46.8717 26.4282 46.5641 26.3314 46.3477 26.1377C46.1312 25.9326 45.9717 25.682 45.8691 25.3857C45.778 25.0781 45.7267 24.7534 45.7153 24.4116C45.7039 24.0584 45.6982 23.7394 45.6982 23.4546C45.6982 22.9191 45.6925 22.2868 45.6812 21.5576C45.6698 20.8171 45.6584 20.0651 45.647 19.3018C45.6356 18.527 45.6242 17.7751 45.6128 17.0459C45.6014 16.3053 45.5957 15.6673 45.5957 15.1318V13.833C45.5501 12.9899 45.2938 12.2323 44.8267 11.5601C44.3595 10.8765 43.8924 10.2327 43.4253 9.62891L43.1519 9.45801C43.1519 9.45801 43.1462 9.45801 43.1348 9.45801C43.0436 9.45801 42.7816 9.62891 42.3486 9.9707C41.8815 10.3353 41.3802 10.7625 40.8447 11.2524C40.3092 11.731 39.8193 12.181 39.375 12.6025C38.9307 13.0241 38.7085 13.2576 38.7085 13.3032ZM56.4478 12.9614H56.7212L57.3193 12.6709C57.4788 12.6709 57.6326 12.7507 57.7808 12.9102C57.9403 13.0583 58.077 13.2349 58.1909 13.4399C58.3049 13.6336 58.3903 13.8387 58.4473 14.0552C58.5156 14.2603 58.5498 14.4198 58.5498 14.5337V24.3262C58.5498 24.5882 58.4871 24.8389 58.3618 25.0781C58.2479 25.306 58.1226 25.5225 57.9858 25.7275C57.8491 25.9212 57.7181 26.1092 57.5928 26.2915C57.4788 26.4624 57.4219 26.6276 57.4219 26.7871V27.0264C58.2194 27.3568 58.8916 27.7498 59.4385 28.2056C59.9854 28.6499 60.481 29.2253 60.9253 29.9316H61.0962C61.2329 29.9316 61.3924 29.755 61.5747 29.4019C61.7684 29.0487 61.9621 28.7809 62.1558 28.5986C62.2469 28.4619 62.4121 28.3081 62.6514 28.1372C62.902 27.9549 63.1527 27.7669 63.4033 27.5732C63.6654 27.3682 63.8989 27.1859 64.104 27.0264C64.3205 26.8669 64.4287 26.7244 64.4287 26.5991C64.4287 26.4852 64.366 26.3542 64.2407 26.2061C64.1268 26.0465 63.9958 25.8586 63.8477 25.6421C63.6995 25.4256 63.5628 25.1693 63.4375 24.873C63.3236 24.5768 63.2666 24.2236 63.2666 23.8135V23.3521C63.2666 23.0216 63.2666 22.4577 63.2666 21.6602C63.2666 20.8512 63.2723 19.991 63.2837 19.0796C63.2951 18.1681 63.3122 17.3193 63.335 16.5332C63.3577 15.7357 63.3919 15.1831 63.4375 14.8755C63.4603 14.6704 63.5457 14.4425 63.6938 14.1919C63.8534 13.9299 64.0413 13.6906 64.2578 13.4741C64.4857 13.2463 64.7249 13.0583 64.9756 12.9102C65.2376 12.7507 65.4826 12.6709 65.7104 12.6709C66.2004 12.6709 66.5592 13.1494 66.7871 14.1064C67.015 15.0635 67.1631 16.18 67.2314 17.4561C67.277 18.3219 67.2998 19.1935 67.2998 20.0708C67.2998 20.481 67.2941 20.8854 67.2827 21.2842C67.2485 22.5716 67.2314 23.5514 67.2314 24.2236V25.2319C67.2314 25.6991 67.2656 26.1776 67.334 26.6675C67.4023 27.1574 67.596 27.5675 67.915 27.8979L70.0854 29.9316H70.2051C70.1595 29.9089 70.188 29.8405 70.2905 29.7266C70.3931 29.6012 70.5184 29.4702 70.6665 29.3335C70.826 29.1968 70.9684 29.0601 71.0938 28.9233C71.2191 28.7752 71.2931 28.667 71.3159 28.5986L73.7598 26.1548C74.113 25.8016 74.2896 25.4484 74.2896 25.0952H73.9478L72.9907 25.9668C72.8084 25.9668 72.6432 25.887 72.4951 25.7275C72.3584 25.568 72.2331 25.38 72.1191 25.1636C72.0052 24.9357 71.9198 24.7078 71.8628 24.48C71.8058 24.2407 71.7773 24.0413 71.7773 23.8818V14.8755C71.7773 14.1235 71.9539 13.457 72.3071 12.876C72.6717 12.2949 73.0762 11.7367 73.5205 11.2012V10.5688L71.9482 11.9019C71.766 11.7879 71.5609 11.5658 71.333 11.2354C71.1165 10.8936 70.883 10.5404 70.6323 10.1758C70.3931 9.8112 70.1481 9.48649 69.8975 9.20166C69.6582 8.90544 69.4303 8.75732 69.2139 8.75732H69.1455C69.0999 8.75732 68.9803 8.84847 68.7866 9.03076C68.6043 9.20166 68.3936 9.38965 68.1543 9.59473C67.9264 9.7998 67.7214 9.99919 67.5391 10.1929C67.3568 10.3752 67.2542 10.4777 67.2314 10.5005C67.0719 10.6144 66.8042 10.8138 66.4282 11.0986C66.0522 11.3835 65.6592 11.6797 65.249 11.9873C64.8389 12.2835 64.4743 12.5513 64.1553 12.7905C63.8477 13.0184 63.6711 13.1323 63.6255 13.1323C63.5343 13.1323 63.3805 12.9102 63.1641 12.4658C62.959 12.0215 62.7197 11.5259 62.4463 10.979C62.1729 10.4321 61.888 9.93652 61.5918 9.49219C61.307 9.04785 61.0278 8.82568 60.7544 8.82568H60.6348C60.3727 8.82568 60.0024 9.04215 59.5239 9.4751C59.0568 9.90804 58.5954 10.3866 58.1396 10.9106C57.6839 11.4347 57.2852 11.9132 56.9434 12.3462C56.613 12.7791 56.4478 12.9842 56.4478 12.9614ZM75.0073 22.9248C75.0073 23.8135 75.1896 24.5939 75.5542 25.2661C75.9302 25.9269 76.3859 26.5308 76.9214 27.0776C77.4569 27.6245 78.0436 28.1372 78.6816 28.6157C79.3311 29.0942 79.9121 29.5898 80.4248 30.1025H80.6641C81.3363 29.3506 82.0312 28.7354 82.749 28.2568C83.4668 27.7669 84.2301 27.277 85.0391 26.7871C85.3695 26.6048 85.717 26.3428 86.0815 26.001C86.4461 25.6592 86.7765 25.2832 87.0728 24.873C87.3804 24.4629 87.631 24.0356 87.8247 23.5913C88.0298 23.147 88.1323 22.714 88.1323 22.2925V14.3628C88.1323 13.4513 87.9102 12.6139 87.4658 11.8506C87.0215 11.0758 86.4632 10.3638 85.791 9.71436C85.1302 9.05355 84.4181 8.4611 83.6548 7.93701C82.9028 7.41292 82.2021 6.9515 81.5527 6.55273C81.2451 6.37044 80.8691 6.18815 80.4248 6.00586C79.9805 5.81217 79.5475 5.5957 79.126 5.35645C78.7158 5.10579 78.3626 4.82096 78.0664 4.50195C77.7702 4.18294 77.6221 3.78988 77.6221 3.32275C77.6221 3.09489 77.6733 2.89551 77.7759 2.72461C77.8898 2.54232 78.0037 2.38281 78.1177 2.24609C78.2316 2.10938 78.3341 1.97266 78.4253 1.83594C78.5278 1.68783 78.5791 1.51123 78.5791 1.30615C78.0436 1.30615 77.5594 1.45426 77.1265 1.75049C76.6935 2.03532 76.3232 2.3999 76.0156 2.84424C75.708 3.28857 75.4744 3.77279 75.3149 4.29688C75.1554 4.82096 75.0757 5.31657 75.0757 5.78369C75.0985 7.04834 75.4574 8.01107 76.1523 8.67188C76.8587 9.33268 77.7018 9.94222 78.6816 10.5005C78.7956 10.5575 78.8525 10.6771 78.8525 10.8594C78.8525 10.9505 78.6532 11.1556 78.2544 11.4746C77.8556 11.7822 77.417 12.1867 76.9385 12.688C76.46 13.1893 76.0156 13.7703 75.6055 14.4312C75.2067 15.0806 75.0073 15.7812 75.0073 16.5332V22.9248ZM79.7925 22.0532V12.1582C79.7925 11.7594 79.9691 11.5601 80.3223 11.5601C80.6071 11.5601 80.9375 11.731 81.3135 12.0728C81.7008 12.4032 82.0711 12.8076 82.4243 13.2861C82.7775 13.7646 83.068 14.2489 83.2959 14.7388C83.5352 15.2287 83.6548 15.6274 83.6548 15.9351V25.8984C83.6548 25.8984 83.6035 25.9326 83.501 26.001C83.4098 26.0579 83.3415 26.1092 83.2959 26.1548H83.2275C82.9655 26.1548 82.6351 25.9896 82.2363 25.6592C81.849 25.3288 81.473 24.9528 81.1084 24.5312C80.7438 24.0983 80.4305 23.6483 80.1685 23.1812C79.9178 22.714 79.7925 22.3381 79.7925 22.0532ZM89.1919 23.1128C89.1919 23.6711 89.3172 24.3091 89.5679 25.0269C89.8299 25.7332 90.1774 26.4168 90.6104 27.0776C91.0433 27.7384 91.5332 28.3252 92.0801 28.8379C92.627 29.3506 93.1795 29.7152 93.7378 29.9316H93.8062C93.9429 29.9316 94.2334 29.7778 94.6777 29.4702C95.1221 29.1512 95.5892 28.7923 96.0791 28.3936C96.569 27.9948 97.019 27.6131 97.4292 27.2485C97.8394 26.884 98.09 26.6675 98.1812 26.5991C98.409 26.4396 98.6882 26.189 99.0186 25.8472C99.349 25.494 99.5142 25.306 99.5142 25.2832V25.0952H99.0527C98.6995 25.3573 98.3862 25.6307 98.1128 25.9155C97.8507 26.189 97.5033 26.3257 97.0703 26.3257C96.888 26.3257 96.626 26.2118 96.2842 25.9839C95.9424 25.7446 95.6006 25.4655 95.2588 25.1465C94.917 24.8161 94.6151 24.4686 94.353 24.104C94.1024 23.7394 93.9771 23.4318 93.9771 23.1812V22.9248C94.5353 22.3665 95.1506 21.7798 95.8228 21.1646C96.5063 20.5493 97.1387 19.8942 97.7197 19.1992C98.3122 18.4928 98.7964 17.7352 99.1724 16.9263C99.5597 16.1174 99.7534 15.2629 99.7534 14.3628C99.7534 14.0096 99.6737 13.5368 99.5142 12.9443C99.3547 12.3405 99.1325 11.748 98.8477 11.167C98.5628 10.5859 98.2324 10.0789 97.8564 9.646C97.4919 9.21305 97.1102 8.99658 96.7114 8.99658H96.6089C96.0506 9.62321 95.3442 10.2271 94.4897 10.8081C93.6353 11.3778 92.8149 11.9759 92.0288 12.6025C91.2541 13.2292 90.5876 13.9128 90.0293 14.6533C89.471 15.3825 89.1919 16.237 89.1919 17.2168V23.1128ZM93.6182 15.4224C93.6182 15.297 93.6182 15.1774 93.6182 15.0635C93.6182 14.8128 93.6239 14.5736 93.6353 14.3457C93.658 14.0039 93.7093 13.702 93.7891 13.4399C93.8688 13.1665 93.9941 13.0298 94.165 13.0298H94.2676C94.6436 13.0298 94.974 13.2406 95.2588 13.6621C95.555 14.0723 95.8 14.5565 95.9937 15.1147C96.1873 15.6616 96.3354 16.1971 96.438 16.7212C96.5519 17.2453 96.6089 17.6213 96.6089 17.8491C96.6089 18.134 96.5291 18.4871 96.3696 18.9087C96.2215 19.3302 96.0278 19.7461 95.7886 20.1562C95.5607 20.555 95.2987 20.8968 95.0024 21.1816C94.7176 21.4551 94.4385 21.5918 94.165 21.5918C94.0169 21.5918 93.8973 21.569 93.8062 21.5234C93.7378 20.7487 93.6922 20.0651 93.6694 19.4727C93.6466 18.8802 93.6353 18.2707 93.6353 17.644V16.2769C93.6353 16.0718 93.6296 15.7869 93.6182 15.4224ZM100.813 14.0039C101.098 14.0039 101.343 13.8729 101.548 13.6108C101.753 13.3374 101.998 13.2007 102.283 13.2007C102.488 13.2007 102.664 13.2804 102.812 13.4399C102.972 13.5881 103.097 13.7646 103.188 13.9697C103.28 14.1748 103.342 14.397 103.376 14.6362C103.411 14.8641 103.428 15.0635 103.428 15.2344V24.3945C103.428 24.7021 103.314 24.9984 103.086 25.2832C102.869 25.5566 102.63 25.8244 102.368 26.0864C102.118 26.3371 101.878 26.582 101.65 26.8213C101.434 27.0492 101.326 27.2713 101.326 27.4878H101.685L103.428 25.9668H103.496H103.616C104.037 26.7188 104.413 27.334 104.744 27.8125C105.085 28.291 105.581 28.8208 106.23 29.4019C106.322 29.493 106.475 29.6354 106.692 29.8291C106.92 30.0114 107.056 30.1025 107.102 30.1025H107.358L112.605 25.0269C112.605 25.0269 112.622 24.9813 112.656 24.8901C112.69 24.799 112.708 24.7306 112.708 24.6851L112.776 24.4971C112.594 24.4971 112.4 24.5654 112.195 24.7021C112.001 24.8275 111.813 24.9813 111.631 25.1636C111.46 25.3345 111.306 25.494 111.169 25.6421C111.033 25.7902 110.924 25.8984 110.845 25.9668H109.973C109.859 25.9668 109.705 25.8757 109.512 25.6934C109.329 25.5111 109.136 25.3003 108.931 25.061C108.737 24.8104 108.572 24.5711 108.435 24.3433C108.298 24.104 108.23 23.9274 108.23 23.8135V14.7729C108.23 14.7274 108.264 14.7046 108.333 14.7046H108.503C108.765 14.7046 109.01 14.7331 109.238 14.79C109.478 14.847 109.757 14.8755 110.076 14.8755C110.702 14.8755 111.261 14.7388 111.75 14.4653C112.252 14.1805 112.662 13.8102 112.981 13.3545C113.311 12.8988 113.562 12.3747 113.733 11.7822C113.915 11.1898 114.006 10.5916 114.006 9.98779C114.006 9.94222 114.001 9.85677 113.989 9.73145C113.978 9.59473 113.927 9.52637 113.835 9.52637C113.528 10.0391 113.277 10.4207 113.083 10.6714C112.901 10.9106 112.508 11.0303 111.904 11.0303C111.551 11.0303 111.261 10.9277 111.033 10.7227C110.816 10.5062 110.64 10.2214 110.503 9.86816C110.321 9.86816 110.127 10.0163 109.922 10.3125C109.728 10.6087 109.523 10.9334 109.307 11.2866C109.102 11.6284 108.891 11.9474 108.674 12.2437C108.469 12.5285 108.264 12.6709 108.059 12.6709C107.922 12.6709 107.751 12.5057 107.546 12.1753C107.353 11.8335 107.136 11.4632 106.897 11.0645C106.669 10.6657 106.413 10.3011 106.128 9.9707C105.843 9.62891 105.553 9.45801 105.256 9.45801H105.188C105.142 9.45801 105.028 9.54915 104.846 9.73145C104.675 9.90234 104.487 10.0903 104.282 10.2954C104.089 10.5005 103.901 10.6999 103.718 10.8936C103.547 11.0758 103.451 11.1784 103.428 11.2012C103.223 11.3835 102.966 11.5715 102.659 11.7651C102.362 11.9474 102.072 12.1525 101.787 12.3804C101.502 12.5968 101.269 12.8418 101.086 13.1152C100.904 13.3773 100.813 13.6735 100.813 14.0039ZM114.417 27.6587C114.576 27.6587 114.713 27.5903 114.827 27.4536C114.952 27.3055 115.066 27.146 115.168 26.9751C115.271 26.7928 115.374 26.6276 115.476 26.4795C115.59 26.3314 115.738 26.2573 115.92 26.2573H115.989C116.342 26.6105 116.724 26.9751 117.134 27.3511C117.555 27.7157 117.983 28.0688 118.416 28.4106C118.848 28.7524 119.276 29.0487 119.697 29.2993C120.119 29.5386 120.518 29.6924 120.894 29.7607H121.338C121.873 29.2025 122.54 28.6499 123.337 28.103C124.135 27.5448 124.898 26.9694 125.627 26.377C126.368 25.7845 127.006 25.1465 127.542 24.4629C128.077 23.7679 128.345 22.9875 128.345 22.1216V15.3027C128.345 14.6989 128.236 14.1178 128.02 13.5596C127.815 12.9899 127.542 12.4601 127.2 11.9702C126.869 11.4803 126.499 11.0132 126.089 10.5688C125.679 10.1245 125.263 9.72005 124.841 9.35547H124.739C124.556 9.35547 124.277 9.53776 123.901 9.90234C123.525 10.2555 123.127 10.6543 122.705 11.0986C122.284 11.543 121.856 11.9474 121.423 12.312C120.99 12.6652 120.614 12.8418 120.295 12.8418H120.193C120.079 12.8418 120.005 12.7507 119.971 12.5684C119.948 12.3861 119.937 12.2323 119.937 12.1069V5.68115C119.937 5.32796 119.948 4.96338 119.971 4.5874C119.993 4.21143 120.062 3.87533 120.176 3.5791C120.301 3.27148 120.483 3.02083 120.723 2.82715C120.973 2.62207 121.321 2.51953 121.765 2.51953C121.765 2.87272 121.646 3.20312 121.406 3.51074C121.178 3.80697 121.064 4.17725 121.064 4.62158C121.064 5.15706 121.218 5.58431 121.526 5.90332C121.845 6.22233 122.272 6.38184 122.808 6.38184C124.095 6.38184 124.739 5.71533 124.739 4.38232C124.739 3.89242 124.625 3.46517 124.397 3.10059C124.181 2.736 123.896 2.44548 123.542 2.229C123.201 2.00114 122.813 1.83594 122.38 1.7334C121.947 1.63086 121.509 1.57959 121.064 1.57959C119.15 1.57959 117.612 2.30306 116.45 3.75C116.222 4.01204 115.989 4.35954 115.75 4.79248C115.51 5.21403 115.391 5.6014 115.391 5.95459V24.4971C115.391 24.873 115.339 25.1978 115.237 25.4712C115.134 25.7332 115.02 25.9839 114.895 26.2231C114.781 26.451 114.673 26.6789 114.57 26.9067C114.468 27.1232 114.417 27.3739 114.417 27.6587ZM120.005 22.583V15.0635C120.005 14.904 120.056 14.6989 120.159 14.4482C120.273 14.1976 120.404 13.964 120.552 13.7476C120.7 13.5197 120.876 13.3317 121.082 13.1836C121.287 13.0355 121.492 12.9614 121.697 12.9614C121.902 12.9614 122.13 13.0811 122.38 13.3203C122.642 13.5482 122.882 13.8216 123.098 14.1406C123.326 14.4482 123.508 14.7729 123.645 15.1147C123.793 15.4451 123.867 15.7186 123.867 15.9351V25.9668C123.867 26.0352 123.793 26.075 123.645 26.0864H123.44C123.132 26.0864 122.779 25.9725 122.38 25.7446C121.993 25.5054 121.623 25.2091 121.27 24.856C120.916 24.5028 120.614 24.1268 120.364 23.728C120.125 23.3179 120.005 22.9362 120.005 22.583ZM129.182 13.3032C129.182 13.4855 129.239 13.5881 129.353 13.6108C129.467 13.6222 129.592 13.5994 129.729 13.5425C129.877 13.4741 130.014 13.4001 130.139 13.3203C130.264 13.2406 130.35 13.2007 130.396 13.2007C130.623 13.2007 130.8 13.3089 130.925 13.5254C131.062 13.7305 131.159 13.9754 131.216 14.2603C131.284 14.5337 131.324 14.8014 131.335 15.0635C131.347 15.3141 131.353 15.485 131.353 15.5762V25.5566C131.353 25.9326 131.159 26.377 130.771 26.8896C130.384 27.4023 130.088 27.7384 129.883 27.8979V28.3594H130.225L131.353 27.2998H131.523C131.66 27.2998 131.82 27.4479 132.002 27.7441C132.196 28.0404 132.418 28.3651 132.668 28.7183C132.931 29.0601 133.21 29.3791 133.506 29.6753C133.813 29.9601 134.144 30.1025 134.497 30.1025H134.771C135.522 29.305 136.257 28.6214 136.975 28.0518C137.704 27.4821 138.513 26.8498 139.402 26.1548H139.504C139.573 26.2687 139.738 26.5422 140 26.9751C140.273 27.408 140.581 27.8524 140.923 28.3081C141.265 28.7638 141.589 29.1797 141.897 29.5557C142.216 29.9202 142.467 30.1025 142.649 30.1025H142.82C142.911 30.1025 143.179 29.8918 143.623 29.4702C144.067 29.0487 144.535 28.5701 145.024 28.0347C145.514 27.4992 145.953 26.9808 146.34 26.4795C146.728 25.9782 146.921 25.6364 146.921 25.4541C146.637 25.4541 146.414 25.5737 146.255 25.813C146.095 26.0409 145.885 26.1548 145.623 26.1548C145.361 26.1548 145.161 26.0636 145.024 25.8813C144.888 25.6877 144.785 25.4598 144.717 25.1978C144.648 24.9243 144.609 24.6452 144.597 24.3604C144.586 24.0641 144.58 23.7964 144.58 23.5571V22.2241C144.58 21.9165 144.586 21.3753 144.597 20.6006C144.609 19.8258 144.614 19.0055 144.614 18.1396C144.614 17.251 144.62 16.4193 144.631 15.6445C144.643 14.8584 144.648 14.3115 144.648 14.0039C144.694 13.6735 144.819 13.383 145.024 13.1323C145.241 12.8703 145.457 12.6253 145.674 12.3975C145.902 12.1582 146.107 11.9246 146.289 11.6968C146.483 11.4575 146.58 11.2012 146.58 10.9277H146.152L144.648 12.4316C144.489 12.2721 144.29 12.0272 144.05 11.6968C143.822 11.3664 143.583 11.0417 143.333 10.7227C143.093 10.3923 142.854 10.1017 142.615 9.85107C142.387 9.58903 142.188 9.45801 142.017 9.45801H141.846C141.493 9.8112 141.088 10.1815 140.632 10.5688C140.188 10.9448 139.761 11.3037 139.351 11.6455C138.94 11.9873 138.587 12.2949 138.291 12.5684C138.006 12.8304 137.852 13.0184 137.83 13.1323V13.4741C138.057 13.4741 138.251 13.3887 138.411 13.2178C138.582 13.0469 138.792 12.9614 139.043 12.9614C139.271 12.9614 139.453 13.1551 139.59 13.5425C139.738 13.9185 139.823 14.152 139.846 14.2432V23.9844L139.573 24.856L137.932 26.4282H137.744C137.345 26.4282 137.038 26.3314 136.821 26.1377C136.605 25.9326 136.445 25.682 136.343 25.3857C136.252 25.0781 136.2 24.7534 136.189 24.4116C136.178 24.0584 136.172 23.7394 136.172 23.4546C136.172 22.9191 136.166 22.2868 136.155 21.5576C136.143 20.8171 136.132 20.0651 136.121 19.3018C136.109 18.527 136.098 17.7751 136.086 17.0459C136.075 16.3053 136.069 15.6673 136.069 15.1318V13.833C136.024 12.9899 135.767 12.2323 135.3 11.5601C134.833 10.8765 134.366 10.2327 133.899 9.62891L133.625 9.45801C133.625 9.45801 133.62 9.45801 133.608 9.45801C133.517 9.45801 133.255 9.62891 132.822 9.9707C132.355 10.3353 131.854 10.7625 131.318 11.2524C130.783 11.731 130.293 12.181 129.849 12.6025C129.404 13.0241 129.182 13.2576 129.182 13.3032ZM147.776 23.1128C147.776 23.8306 147.896 24.5199 148.135 25.1807C148.385 25.8301 148.704 26.4453 149.092 27.0264C149.491 27.6074 149.941 28.1543 150.442 28.667C150.943 29.1797 151.45 29.6582 151.963 30.1025H152.151C152.174 30.1025 152.276 30.0171 152.458 29.8462C152.652 29.6639 152.857 29.4588 153.074 29.231C153.29 28.9917 153.501 28.7752 153.706 28.5815C153.923 28.3879 154.065 28.2568 154.133 28.1885C154.418 28.0062 154.771 27.784 155.193 27.522C155.614 27.2599 156.013 26.9808 156.389 26.6846C156.777 26.377 157.107 26.0522 157.38 25.7104C157.665 25.3687 157.808 25.0269 157.808 24.6851H157.637C157.454 24.6851 157.266 24.7648 157.073 24.9243C156.89 25.0838 156.72 25.2604 156.56 25.4541C156.412 25.6364 156.264 25.8073 156.116 25.9668C155.968 26.1149 155.837 26.1776 155.723 26.1548C155.415 26.1548 155.073 26.0238 154.697 25.7617C154.321 25.4883 153.968 25.1636 153.638 24.7876C153.319 24.4116 153.04 24.0186 152.8 23.6084C152.572 23.1982 152.436 22.8564 152.39 22.583C152.39 21.9108 152.379 21.1589 152.356 20.3271C152.333 19.4954 152.31 18.7093 152.288 17.9688C152.265 17.2168 152.248 16.5617 152.236 16.0034C152.225 15.4451 152.219 15.0692 152.219 14.8755C152.219 14.4084 152.248 13.9868 152.305 13.6108C152.362 13.2235 152.481 13.0298 152.664 13.0298C152.755 13.0298 152.874 13.0811 153.022 13.1836C153.182 13.2861 153.359 13.4058 153.552 13.5425C153.757 13.6678 153.968 13.7874 154.185 13.9014C154.412 14.0153 154.629 14.0723 154.834 14.0723C155.392 14.0723 155.916 13.9469 156.406 13.6963C156.908 13.4342 157.329 13.0924 157.671 12.6709C158.024 12.2493 158.298 11.7708 158.491 11.2354C158.696 10.6999 158.799 10.1644 158.799 9.62891C158.799 9.58333 158.793 9.48649 158.782 9.33838C158.77 9.17887 158.719 9.09912 158.628 9.09912L158.508 9.16748C158.349 9.28141 158.241 9.40674 158.184 9.54346C158.127 9.66878 158.075 9.79411 158.03 9.91943C157.984 10.0334 157.899 10.1302 157.773 10.21C157.66 10.2897 157.477 10.3296 157.227 10.3296C156.873 10.3296 156.589 10.2498 156.372 10.0903C156.167 9.91943 156.007 9.73714 155.894 9.54346C155.78 9.34977 155.671 9.17318 155.569 9.01367C155.478 8.84277 155.387 8.75732 155.295 8.75732H155.193C155.079 8.84847 154.885 9.01367 154.612 9.25293C154.35 9.48079 154.065 9.72575 153.757 9.98779C153.45 10.2384 153.159 10.4834 152.886 10.7227C152.624 10.9505 152.436 11.11 152.322 11.2012C151.9 11.5544 151.422 11.9076 150.886 12.2607C150.351 12.6025 149.855 12.9842 149.399 13.4058C148.944 13.8273 148.556 14.2887 148.237 14.79C147.93 15.2913 147.776 15.8724 147.776 16.5332V23.1128ZM154.766 11.9019L154.954 11.731C154.976 11.7082 154.999 11.6968 155.022 11.6968C155.068 11.6968 155.102 11.748 155.125 11.8506L155.193 12.0728C155.147 12.0728 155.073 12.0671 154.971 12.0557C154.88 12.0443 154.811 11.993 154.766 11.9019ZM159.055 26.958C159.146 27.0036 159.357 27.0833 159.688 27.1973C160.029 27.3112 160.246 27.3682 160.337 27.3682C160.542 27.4593 160.776 27.6188 161.038 27.8467C161.3 28.0745 161.539 28.3138 161.755 28.5645C161.983 28.8037 162.183 29.0145 162.354 29.1968C162.536 29.3791 162.661 29.4702 162.729 29.4702C162.661 29.4702 162.792 29.3335 163.123 29.0601C163.464 28.7752 163.852 28.4676 164.285 28.1372C164.718 27.7954 165.116 27.4707 165.481 27.1631C165.857 26.8555 166.045 26.6675 166.045 26.5991C166.045 26.4396 165.988 26.3086 165.874 26.2061C165.76 26.1035 165.629 25.9953 165.481 25.8813C165.344 25.756 165.213 25.6079 165.088 25.437C164.963 25.2547 164.9 25.0269 164.9 24.7534V19.2505H167.173C167.435 19.2505 167.646 19.3416 167.805 19.5239C167.965 19.6948 168.107 19.8999 168.232 20.1392C168.369 20.367 168.477 20.6063 168.557 20.8569C168.637 21.0962 168.7 21.2842 168.745 21.4209C168.745 21.8424 168.739 22.264 168.728 22.6855C168.717 23.1071 168.711 23.5286 168.711 23.9502C168.711 25.0212 168.831 26.0181 169.07 26.9409C169.32 27.8638 169.913 28.6499 170.847 29.2993C170.984 29.3905 171.132 29.493 171.292 29.6069C171.462 29.7095 171.639 29.7607 171.821 29.7607L175.222 26.4282C175.245 26.4054 175.268 26.3485 175.291 26.2573C175.313 26.1662 175.325 26.1092 175.325 26.0864L175.393 25.8984C175.188 25.8984 175.017 25.9611 174.88 26.0864C174.755 26.2004 174.578 26.2573 174.351 26.2573C174.123 26.2345 173.946 26.0238 173.821 25.625C173.707 25.2262 173.627 24.9357 173.582 24.7534V22.9932C173.582 22.4121 173.462 21.8994 173.223 21.4551C172.995 21.0107 172.699 20.6177 172.334 20.2759C171.969 19.9227 171.565 19.6265 171.121 19.3872C170.676 19.1366 170.232 18.9201 169.788 18.7378C169.788 18.6239 169.731 18.5612 169.617 18.5498C170.015 18.0827 170.409 17.701 170.796 17.4048C171.183 17.0972 171.531 16.7896 171.838 16.4819C172.157 16.1629 172.408 15.7926 172.59 15.3711C172.784 14.9495 172.881 14.3799 172.881 13.6621C172.881 13.2406 172.767 12.7734 172.539 12.2607C172.323 11.748 172.072 11.2638 171.787 10.8081C171.514 10.3524 171.246 9.96501 170.984 9.646C170.733 9.32699 170.568 9.16748 170.488 9.16748H170.42C169.622 9.96501 168.774 10.6144 167.874 11.1157C166.985 11.617 166.142 12.1924 165.344 12.8418H165.173C165.082 12.8418 165.008 12.7222 164.951 12.4829C164.894 12.2323 164.849 11.9303 164.814 11.5771C164.78 11.2126 164.752 10.8195 164.729 10.3979C164.718 9.9764 164.712 9.59473 164.712 9.25293V8.05664V6.99707C164.712 6.48438 164.723 5.9432 164.746 5.37354C164.78 4.80387 164.849 4.28548 164.951 3.81836C165.054 3.35124 165.219 2.96387 165.447 2.65625C165.686 2.33724 166.028 2.17773 166.472 2.17773C166.518 2.17773 166.62 2.18343 166.78 2.19482C166.951 2.20622 167.059 2.25749 167.104 2.34863C166.751 2.70182 166.484 3.02653 166.301 3.32275C166.13 3.60758 166.045 3.98356 166.045 4.45068C166.045 4.98617 166.21 5.4305 166.541 5.78369C166.871 6.13688 167.315 6.31348 167.874 6.31348C168.409 6.31348 168.859 6.11979 169.224 5.73242C169.6 5.34505 169.788 4.86084 169.788 4.27979C169.788 3.7443 169.668 3.28288 169.429 2.89551C169.201 2.50814 168.893 2.20052 168.506 1.97266C168.13 1.74479 167.708 1.57959 167.241 1.47705C166.774 1.36312 166.318 1.30615 165.874 1.30615C165.27 1.30615 164.632 1.41439 163.96 1.63086C163.299 1.83594 162.69 2.13786 162.131 2.53662C161.573 2.92399 161.106 3.39681 160.73 3.95508C160.354 4.51335 160.166 5.14567 160.166 5.85205V24.4971C160.166 24.8958 160.029 25.2775 159.756 25.6421C159.494 26.0067 159.26 26.2915 159.055 26.4966V26.958ZM164.712 17.644V17.3364C164.712 17.0744 164.723 16.6813 164.746 16.1572C164.78 15.6331 164.86 15.1147 164.985 14.6021C165.111 14.0894 165.304 13.6393 165.566 13.252C165.84 12.8646 166.233 12.6709 166.746 12.6709C167.076 12.6709 167.372 12.7848 167.634 13.0127C167.908 13.2292 168.136 13.5026 168.318 13.833C168.512 14.152 168.66 14.4938 168.762 14.8584C168.865 15.223 168.916 15.5477 168.916 15.8325C168.916 16.0376 168.882 16.2882 168.813 16.5845C168.745 16.8693 168.631 17.1484 168.472 17.4219C168.324 17.6839 168.136 17.9118 167.908 18.1055C167.691 18.2878 167.446 18.3789 167.173 18.3789H165.002C164.889 18.3789 164.809 18.2992 164.763 18.1396C164.729 17.9688 164.712 17.8035 164.712 17.644ZM175.872 23.1128C175.872 23.6711 175.997 24.3091 176.248 25.0269C176.51 25.7332 176.857 26.4168 177.29 27.0776C177.723 27.7384 178.213 28.3252 178.76 28.8379C179.307 29.3506 179.859 29.7152 180.417 29.9316H180.486C180.623 29.9316 180.913 29.7778 181.357 29.4702C181.802 29.1512 182.269 28.7923 182.759 28.3936C183.249 27.9948 183.699 27.6131 184.109 27.2485C184.519 26.884 184.77 26.6675 184.861 26.5991C185.089 26.4396 185.368 26.189 185.698 25.8472C186.029 25.494 186.194 25.306 186.194 25.2832V25.0952H185.732C185.379 25.3573 185.066 25.6307 184.792 25.9155C184.53 26.189 184.183 26.3257 183.75 26.3257C183.568 26.3257 183.306 26.2118 182.964 25.9839C182.622 25.7446 182.28 25.4655 181.938 25.1465C181.597 24.8161 181.295 24.4686 181.033 24.104C180.782 23.7394 180.657 23.4318 180.657 23.1812V22.9248C181.215 22.3665 181.83 21.7798 182.502 21.1646C183.186 20.5493 183.818 19.8942 184.399 19.1992C184.992 18.4928 185.476 17.7352 185.852 16.9263C186.239 16.1174 186.433 15.2629 186.433 14.3628C186.433 14.0096 186.353 13.5368 186.194 12.9443C186.034 12.3405 185.812 11.748 185.527 11.167C185.243 10.5859 184.912 10.0789 184.536 9.646C184.172 9.21305 183.79 8.99658 183.391 8.99658H183.289C182.73 9.62321 182.024 10.2271 181.169 10.8081C180.315 11.3778 179.495 11.9759 178.708 12.6025C177.934 13.2292 177.267 13.9128 176.709 14.6533C176.151 15.3825 175.872 16.237 175.872 17.2168V23.1128ZM180.298 15.4224C180.298 15.297 180.298 15.1774 180.298 15.0635C180.298 14.8128 180.304 14.5736 180.315 14.3457C180.338 14.0039 180.389 13.702 180.469 13.4399C180.549 13.1665 180.674 13.0298 180.845 13.0298H180.947C181.323 13.0298 181.654 13.2406 181.938 13.6621C182.235 14.0723 182.48 14.5565 182.673 15.1147C182.867 15.6616 183.015 16.1971 183.118 16.7212C183.232 17.2453 183.289 17.6213 183.289 17.8491C183.289 18.134 183.209 18.4871 183.049 18.9087C182.901 19.3302 182.708 19.7461 182.468 20.1562C182.24 20.555 181.978 20.8968 181.682 21.1816C181.397 21.4551 181.118 21.5918 180.845 21.5918C180.697 21.5918 180.577 21.569 180.486 21.5234C180.417 20.7487 180.372 20.0651 180.349 19.4727C180.326 18.8802 180.315 18.2707 180.315 17.644V16.2769C180.315 16.0718 180.309 15.7869 180.298 15.4224ZM187.048 11.731C187.139 11.8677 187.276 11.9645 187.458 12.0215C187.652 12.0785 187.84 12.1297 188.022 12.1753C188.205 12.2095 188.37 12.2437 188.518 12.2778C188.678 12.312 188.769 12.3633 188.792 12.4316C188.792 12.5228 188.797 12.688 188.809 12.9272C188.82 13.1551 188.831 13.4001 188.843 13.6621C188.854 13.9128 188.871 14.1577 188.894 14.397C188.917 14.6248 188.94 14.7843 188.962 14.8755V24.7534C188.894 24.8901 188.848 25.0439 188.826 25.2148C188.803 25.3743 188.792 25.5339 188.792 25.6934C188.792 25.9782 188.723 26.2288 188.586 26.4453C188.45 26.6504 188.296 26.8441 188.125 27.0264C187.965 27.2087 187.812 27.408 187.664 27.6245C187.527 27.8296 187.458 28.0745 187.458 28.3594H187.92L189.031 27.1973H189.15H189.219C189.526 27.4251 189.823 27.7157 190.107 28.0688C190.404 28.422 190.677 28.7638 190.928 29.0942C191.19 29.4132 191.435 29.6924 191.663 29.9316C191.902 30.1595 192.113 30.2734 192.295 30.2734H192.534C192.603 30.2734 192.87 30.0854 193.337 29.7095C193.805 29.3221 194.3 28.8835 194.824 28.3936C195.348 27.9036 195.833 27.4308 196.277 26.9751C196.721 26.5194 196.966 26.2231 197.012 26.0864V25.8984L196.841 25.7959H196.738C196.693 25.7959 196.55 25.9155 196.311 26.1548C196.083 26.3826 195.878 26.4966 195.696 26.4966C195.297 26.4738 194.921 26.2004 194.568 25.6763C194.215 25.1522 194.038 24.7021 194.038 24.3262V12.4316C194.038 12.2493 194.192 12.1069 194.5 12.0044C194.807 11.8905 195.098 11.8335 195.371 11.8335C195.633 11.8335 195.855 11.8563 196.038 11.9019L196.14 11.731C196.14 11.731 196.152 11.6683 196.174 11.543C196.197 11.4062 196.208 11.3151 196.208 11.2695C196.208 10.6885 196.049 10.3752 195.73 10.3296C195.422 10.284 195.069 10.2498 194.67 10.2271C194.363 10.2271 194.141 10.1416 194.004 9.9707C193.867 9.78841 193.776 9.56624 193.73 9.3042C193.685 9.03076 193.668 8.75163 193.679 8.4668C193.691 8.17057 193.696 7.91423 193.696 7.69775C193.696 6.9458 193.719 6.21663 193.765 5.51025C193.81 4.80387 193.987 4.10319 194.294 3.4082C194.431 3.14616 194.625 2.93538 194.875 2.77588C195.138 2.60498 195.269 2.34863 195.269 2.00684C194.938 2.00684 194.619 2.0752 194.312 2.21191C194.015 2.34863 193.713 2.51383 193.406 2.70752C192.631 3.17464 192.004 3.63607 191.526 4.0918C191.059 4.53613 190.666 5.02604 190.347 5.56152C190.039 6.08561 189.788 6.66667 189.595 7.30469C189.412 7.94271 189.224 8.68327 189.031 9.52637C189.031 9.6403 189.002 9.77132 188.945 9.91943C188.888 10.0562 188.837 10.1359 188.792 10.1587H187.288C187.196 10.1587 187.134 10.3068 187.1 10.603C187.065 10.8879 187.048 11.0872 187.048 11.2012V11.731Z" fill="black"/>
</svg>
